<svg width="117" height="35" viewBox="0 0 117 35" fill="none" xmlns="http://www.w3.org/2000/svg">
<g id="Frame 288">
<g id="Group 395">
<path id="Vector" d="M0 0L28.0928 15.0944V19.9056L0 35V27.8948L20.9233 17.501L0 7.10519V0Z" fill="white"/>
<path id="Vector_2" d="M41.5457 16.9566C40.9562 16.9566 40.4462 16.8379 40.0156 16.6005C39.585 16.3631 39.2548 16.0214 39.0228 15.5794C38.7907 15.1353 38.6758 14.6114 38.6758 14.0036V11.8283C38.6758 11.2184 38.7907 10.6925 39.0228 10.2505C39.2548 9.80845 39.585 9.46874 40.0156 9.22931C40.4462 8.98988 40.9562 8.86914 41.5457 8.86914C42.0348 8.86914 42.4779 8.97146 42.8709 9.1761C43.2639 9.38075 43.592 9.67339 43.8533 10.054C44.1146 10.4347 44.2943 10.8869 44.3905 11.4149H43.0214C42.9545 11.153 42.8479 10.9278 42.7037 10.7416C42.5594 10.5554 42.388 10.4101 42.1895 10.3078C41.9909 10.2055 41.7756 10.1543 41.5457 10.1543C41.0816 10.1543 40.7159 10.3037 40.4462 10.6045C40.1766 10.9033 40.0428 11.3126 40.0428 11.8283V14.0036C40.0428 14.5193 40.1766 14.9266 40.4462 15.2253C40.7159 15.5241 41.0816 15.6715 41.5457 15.6715C41.8906 15.6715 42.1978 15.563 42.4696 15.344C42.7413 15.1251 42.9231 14.8161 43.0214 14.4129H44.3905C44.2902 14.9388 44.1083 15.3931 43.847 15.7717C43.5858 16.1524 43.2597 16.445 42.8667 16.6496C42.4758 16.8543 42.0348 16.9566 41.5436 16.9566H41.5457Z" fill="white"/>
<path id="Vector_3" d="M48.1191 16.877L51.7917 8.95117H52.9622L56.6348 16.877H54.9061L52.377 10.9751L49.8478 16.877H48.1191Z" fill="white"/>
<path id="Vector_4" d="M69.9102 16.877L73.5827 8.95117H74.7532L78.4258 16.877H76.6972L74.168 10.9751L71.6388 16.877H69.9102Z" fill="white"/>
<path id="Vector_5" d="M60.3594 10.1995V8.95117H66.1828V10.1995H60.3594ZM62.6085 16.877V9.59989H63.9337V16.877H62.6085Z" fill="white"/>
<path id="Vector_6" d="M82.1523 16.877V8.95117H83.4838V16.877H82.1523ZM82.7752 16.877V15.6287H87.4636V16.877H82.7752Z" fill="white"/>
<path id="Vector_7" d="M97.3702 8.95117L94.9434 13.7357V16.8749H93.6182V13.7357L91.1914 8.95117H92.6211L94.2808 12.4444L95.9404 8.95117H97.3702Z" fill="white"/>
<path id="Vector_8" d="M104.088 16.9588C103.699 16.9588 103.325 16.922 102.965 16.8463C102.608 16.7726 102.271 16.6621 101.96 16.5168C101.649 16.3715 101.36 16.1914 101.097 15.9766L101.803 14.9349C102.115 15.1928 102.464 15.3872 102.852 15.5202C103.239 15.6532 103.651 15.7187 104.086 15.7187C104.627 15.7187 105.047 15.6246 105.346 15.4363C105.645 15.248 105.793 14.98 105.793 14.6341V14.628C105.793 14.3619 105.718 14.1593 105.568 14.0181C105.417 13.8769 105.221 13.7726 104.974 13.705C104.73 13.6375 104.462 13.5802 104.171 13.5331C103.864 13.4861 103.551 13.4267 103.233 13.3551C102.915 13.2835 102.625 13.173 102.359 13.0236C102.094 12.8721 101.881 12.6573 101.72 12.3749C101.559 12.0924 101.477 11.718 101.477 11.2493V11.2432C101.477 10.488 101.732 9.90277 102.242 9.48735C102.752 9.07397 103.473 8.86523 104.406 8.86523C104.84 8.86523 105.273 8.93481 105.708 9.07602C106.143 9.21517 106.556 9.42186 106.949 9.69404L106.303 10.7684C105.992 10.5474 105.674 10.3816 105.352 10.2691C105.031 10.1586 104.715 10.1033 104.406 10.1033C103.893 10.1033 103.496 10.1954 103.216 10.3775C102.936 10.5617 102.796 10.8196 102.796 11.1552V11.1613C102.796 11.4376 102.878 11.6484 103.045 11.7916C103.21 11.9349 103.425 12.0413 103.691 12.1109C103.956 12.1804 104.242 12.2459 104.55 12.3073C104.855 12.3646 105.158 12.4362 105.459 12.5201C105.762 12.6041 106.038 12.7248 106.287 12.8803C106.535 13.0358 106.734 13.2528 106.885 13.527C107.035 13.8012 107.11 14.1573 107.11 14.5973V14.6075C107.11 15.3565 106.845 15.9336 106.318 16.3429C105.789 16.7522 105.043 16.9568 104.084 16.9568L104.088 16.9588Z" fill="white"/>
<path id="Vector_9" d="M110.844 10.1995V8.95117H116.667V10.1995H110.844ZM113.093 16.877V9.59989H114.418V16.877H113.093Z" fill="white"/>
<path id="Vector_10" d="M51.6665 26.0835L50.1699 21.7246H50.7426L51.9174 25.3059L53.0921 21.7246H53.6648L52.1682 26.0835H51.6665Z" fill="white"/>
<path id="Vector_11" d="M54.8105 26.0835V21.7246H55.3436V26.0835H54.8105ZM55.1136 22.2158V21.7246H57.67V22.2158H55.1136ZM55.1136 24.1639V23.6728H57.3335V24.1639H55.1136ZM55.1136 26.0835V25.5924H57.67V26.0835H55.1136Z" fill="white"/>
<path id="Vector_12" d="M59.0283 26.0794V21.7246H59.5342L61.917 25.3734L61.7874 25.3529V21.7267H62.3163V26.0814H61.8042L59.4004 22.4429L59.5572 22.49V26.0814H59.0283V26.0794Z" fill="white"/>
<path id="Vector_13" d="M63.5225 22.2158V21.7246H66.6641V22.2158H63.5225ZM64.8268 26.0835V21.9906H65.3598V26.0835H64.8268Z" fill="white"/>
<path id="Vector_14" d="M69.1239 26.1285C68.6139 26.1285 68.2251 25.9914 67.9596 25.7172C67.6942 25.443 67.5625 25.0439 67.5625 24.5221V21.7246H68.0955V24.5425C68.0955 24.8925 68.1833 25.1585 68.3568 25.3406C68.5303 25.5228 68.7874 25.6149 69.1239 25.6149C69.4604 25.6149 69.7196 25.5228 69.8952 25.3406C70.0708 25.1585 70.1586 24.8904 70.1586 24.5425V21.7246H70.6916V24.5221C70.6916 25.046 70.5578 25.445 70.2924 25.7172C70.0269 25.9894 69.636 26.1285 69.1239 26.1285Z" fill="white"/>
<path id="Vector_15" d="M72.1426 26.0855V21.7246H72.6756V26.0855H72.1426ZM72.4143 24.2417V23.7506H73.9339C74.1513 23.7506 74.3248 23.681 74.4544 23.5398C74.584 23.3986 74.6509 23.2144 74.653 22.9832C74.653 22.7519 74.5882 22.5657 74.4565 22.4265C74.3248 22.2874 74.1513 22.2158 73.9339 22.2158H72.4143V21.7246H73.9088C74.168 21.7246 74.3938 21.7778 74.5882 21.8822C74.7825 21.9866 74.933 22.1339 75.0396 22.3222C75.1462 22.5104 75.2006 22.7314 75.2006 22.9852C75.2006 23.239 75.1462 23.4579 75.0376 23.6462C74.9289 23.8345 74.7784 23.9818 74.5861 24.0862C74.3938 24.1905 74.168 24.2438 73.9088 24.2438H72.4143V24.2417ZM74.7533 26.0855L73.7332 24.1066L74.2474 23.9695L75.3866 26.0855H74.7533Z" fill="white"/>
<path id="Vector_16" d="M76.6992 26.0835V21.7246H77.2322V26.0835H76.6992ZM77.0023 22.2158V21.7246H79.5587V22.2158H77.0023ZM77.0023 24.1639V23.6728H79.2221V24.1639H77.0023ZM77.0023 26.0835V25.5924H79.5587V26.0835H77.0023Z" fill="white"/>
<path id="Vector_17" d="M84.4104 26.1304C84.193 26.1304 83.9903 26.1099 83.8001 26.071C83.6098 26.0322 83.4301 25.9708 83.265 25.8909C83.0998 25.8111 82.9431 25.7109 82.7988 25.5922L83.127 25.187C83.3047 25.3384 83.5011 25.453 83.7144 25.5287C83.9276 25.6044 84.1617 25.6433 84.4125 25.6433C84.7657 25.6433 85.0396 25.5778 85.2319 25.4448C85.4242 25.3118 85.5203 25.1256 85.5203 24.8862C85.5203 24.7102 85.4722 24.5751 85.3761 24.483C85.2799 24.3889 85.1545 24.3193 84.9998 24.2722C84.8452 24.2252 84.6759 24.1863 84.494 24.1535C84.3205 24.1228 84.147 24.088 83.9715 24.0492C83.7959 24.0103 83.637 23.9509 83.4928 23.8732C83.3486 23.7954 83.2315 23.6849 83.1416 23.5396C83.0518 23.3943 83.0079 23.204 83.0079 22.9646C83.0079 22.5553 83.1458 22.2422 83.4217 22.0191C83.6976 21.7961 84.0864 21.6855 84.5881 21.6855C84.8243 21.6855 85.0584 21.7224 85.2862 21.7981C85.514 21.8738 85.7377 21.9864 85.9572 22.1419L85.652 22.5532C85.4702 22.4264 85.2925 22.3302 85.1169 22.2688C84.9413 22.2074 84.7657 22.1767 84.5902 22.1767C84.2557 22.1767 83.9965 22.2442 83.8126 22.3772C83.6287 22.5103 83.5367 22.7006 83.5367 22.9461C83.5367 23.1201 83.5889 23.2511 83.6934 23.3411C83.798 23.4311 83.9359 23.4987 84.1052 23.5437C84.2745 23.5887 84.4543 23.6297 84.6466 23.6685C84.8138 23.7013 84.981 23.7402 85.1483 23.7852C85.3155 23.8302 85.466 23.8957 85.5997 23.9775C85.7335 24.0594 85.8422 24.172 85.9237 24.3152C86.0053 24.4585 86.0471 24.6426 86.0471 24.8677V24.8739C86.0471 25.275 85.9049 25.586 85.6186 25.807C85.3322 26.0281 84.9309 26.1365 84.4125 26.1365L84.4104 26.1304Z" fill="white"/>
<path id="Vector_18" d="M86.791 22.2158V21.7246H89.9326V22.2158H86.791ZM88.0953 26.0835V21.9906H88.6283V26.0835H88.0953Z" fill="white"/>
<path id="Vector_19" d="M92.3934 26.1285C91.8834 26.1285 91.4946 25.9914 91.2292 25.7172C90.9637 25.443 90.832 25.0439 90.832 24.5221V21.7246H91.365V24.5425C91.365 24.8925 91.4528 25.1585 91.6263 25.3406C91.7998 25.5228 92.0569 25.6149 92.3934 25.6149C92.73 25.6149 92.9892 25.5228 93.1647 25.3406C93.3403 25.1585 93.4281 24.8904 93.4281 24.5425V21.7246H93.9611V24.5221C93.9611 25.046 93.8273 25.445 93.5619 25.7172C93.2964 25.9894 92.9055 26.1285 92.3934 26.1285Z" fill="white"/>
<path id="Vector_20" d="M95.4111 26.0835V21.7246H95.9441V26.0835H95.4111ZM95.8334 26.0835V25.5924H96.8409C97.2129 25.5924 97.4951 25.5044 97.6874 25.3263C97.8797 25.1483 97.9759 24.8884 97.9759 24.5466V23.2635C97.9759 22.9218 97.8797 22.6619 97.6874 22.4838C97.4951 22.3058 97.2129 22.2178 96.8409 22.2178H95.8334V21.7267H96.822C97.376 21.7267 97.7961 21.8597 98.0845 22.1257C98.373 22.3917 98.5172 22.7785 98.5172 23.2881V24.5241C98.5172 24.8638 98.4524 25.1503 98.3249 25.3816C98.1974 25.6128 98.0051 25.7888 97.7543 25.9075C97.5035 26.0262 97.192 26.0855 96.822 26.0855H95.8355L95.8334 26.0835Z" fill="white"/>
<path id="Vector_21" d="M100.513 21.7246V26.0835H99.9805V21.7246H100.513Z" fill="white"/>
<path id="Vector_22" d="M103.605 26.1324C103.281 26.1324 103.001 26.0669 102.766 25.9401C102.532 25.8111 102.353 25.627 102.227 25.3855C102.102 25.144 102.039 24.8575 102.039 24.526V23.2899C102.039 22.9564 102.102 22.6699 102.227 22.4304C102.353 22.191 102.532 22.0068 102.766 21.8779C103.001 21.749 103.279 21.6855 103.605 21.6855C103.931 21.6855 104.209 21.751 104.443 21.8779C104.677 22.0068 104.857 22.191 104.982 22.4304C105.108 22.6699 105.17 22.9564 105.17 23.2899V24.526C105.17 24.8575 105.108 25.144 104.982 25.3855C104.857 25.627 104.677 25.8111 104.443 25.9401C104.209 26.069 103.931 26.1324 103.605 26.1324ZM103.605 25.6311C103.922 25.6311 104.173 25.5349 104.357 25.3405C104.541 25.1461 104.631 24.8821 104.631 24.5464V23.2695C104.631 22.9318 104.539 22.6658 104.357 22.4734C104.175 22.2811 103.924 22.1849 103.605 22.1849C103.285 22.1849 103.036 22.2811 102.852 22.4734C102.668 22.6658 102.578 22.9318 102.578 23.2695V24.5464C102.578 24.8821 102.67 25.1461 102.852 25.3405C103.034 25.5349 103.285 25.6311 103.605 25.6311Z" fill="white"/>
</g>
</g>
</svg>
