<svg width="91" height="21" viewBox="0 0 91 21" fill="none" xmlns="http://www.w3.org/2000/svg">
<g id="Frame 9">
<g id="Group 82">
<path id="Vector" d="M3.34225 9.4264C2.65579 9.4264 2.06183 9.28817 1.56037 9.01172C1.05891 8.73526 0.674294 8.33726 0.40409 7.82248C0.133886 7.30531 0 6.6952 0 5.98738V3.45399C0 2.74378 0.133886 2.13128 0.40409 1.6165C0.674294 1.10172 1.05891 0.706104 1.56037 0.427264C2.06183 0.148425 2.65579 0.0078125 3.34225 0.0078125C3.91187 0.0078125 4.42794 0.126975 4.88558 0.365299C5.34323 0.603624 5.72541 0.944428 6.02969 1.38771C6.33398 1.831 6.54332 2.35769 6.6553 2.97257H5.06085C4.98296 2.66752 4.85881 2.40536 4.69084 2.18848C4.52288 1.97161 4.32327 1.8024 4.09201 1.68324C3.86075 1.56407 3.61002 1.50449 3.34225 1.50449C2.80185 1.50449 2.37585 1.67847 2.06183 2.02881C1.74781 2.37676 1.59202 2.85341 1.59202 3.45399V5.98738C1.59202 6.58796 1.74781 7.06222 2.06183 7.41018C2.37585 7.75813 2.80185 7.92972 3.34225 7.92972C3.74391 7.92972 4.10175 7.80341 4.4182 7.5484C4.73466 7.2934 4.94644 6.93353 5.06085 6.46403H6.6553C6.53845 7.07652 6.32667 7.6056 6.02239 8.0465C5.7181 8.48979 5.33836 8.83059 4.88071 9.06892C4.42551 9.30724 3.91187 9.4264 3.33982 9.4264H3.34225Z" fill="#1A1A1A"/>
<path id="Vector_2" d="M10.998 9.33187L15.2751 0.101562H16.6383L20.9153 9.33187H18.9021L15.9567 2.45859L13.0112 9.33187H10.998Z" fill="#1A1A1A"/>
<path id="Vector_3" d="M36.375 9.33187L40.652 0.101562H42.0152L46.2922 9.33187H44.2791L41.3336 2.45859L38.3881 9.33187H36.375Z" fill="#1A1A1A"/>
<path id="Vector_4" d="M25.2529 1.55534V0.101562H32.0348V1.55534H25.2529ZM27.8722 9.33187V0.857051H29.4155V9.33187H27.8722Z" fill="#1A1A1A"/>
<path id="Vector_5" d="M50.6328 9.33187V0.101562H52.1834V9.33187H50.6328ZM51.3582 9.33187V7.87809H56.8183V9.33187H51.3582Z" fill="#1A1A1A"/>
<path id="Vector_6" d="M68.3539 0.101562L65.5277 5.67359V9.32949H63.9844V5.67359L61.1582 0.101562H62.8232L64.7561 4.16976L66.6889 0.101562H68.3539Z" fill="#1A1A1A"/>
<path id="Vector_7" d="M76.1778 9.42574C75.725 9.42574 75.2893 9.38284 74.8706 9.29466C74.4543 9.20886 74.0624 9.08017 73.6997 8.91096C73.337 8.74175 73.0011 8.53202 72.6943 8.28178L73.5171 7.06871C73.8798 7.369 74.2863 7.5954 74.7391 7.75032C75.1895 7.90523 75.669 7.98149 76.1753 7.98149C76.8058 7.98149 77.2951 7.87186 77.6432 7.6526C77.9913 7.43334 78.1641 7.12114 78.1641 6.71837V6.71122C78.1641 6.4014 78.0765 6.16546 77.9012 6.00101C77.726 5.83657 77.4971 5.71502 77.2099 5.63638C76.9251 5.55773 76.6135 5.491 76.2751 5.43618C75.9173 5.38137 75.5522 5.31226 75.1822 5.22884C74.8122 5.14543 74.4738 5.01673 74.1646 4.84276C73.8555 4.6664 73.6072 4.41616 73.4198 4.08727C73.2323 3.75838 73.1374 3.32225 73.1374 2.77648V2.76933C73.1374 1.88991 73.4344 1.20831 74.0283 0.724507C74.6223 0.243091 75.4621 0 76.5478 0C77.0541 0 77.558 0.0810301 78.0643 0.245474C78.5707 0.407535 79.0527 0.648243 79.5103 0.965214L78.7581 2.21642C78.3954 1.95903 78.0254 1.76599 77.6505 1.63491C77.2756 1.50621 76.9081 1.44186 76.5478 1.44186C75.9514 1.44186 75.4889 1.54911 75.1627 1.76122C74.8365 1.97571 74.6734 2.276 74.6734 2.66685V2.674C74.6734 2.99574 74.7683 3.24121 74.9631 3.40804C75.1554 3.57487 75.4061 3.6988 75.7153 3.77983C76.0244 3.86086 76.3579 3.93712 76.7157 4.00862C77.0712 4.07535 77.4241 4.15876 77.7747 4.25648C78.1276 4.35419 78.4489 4.4948 78.7386 4.67593C79.0283 4.85706 79.2596 5.10968 79.4348 5.42903C79.6101 5.74839 79.6977 6.16307 79.6977 6.67547V6.68739C79.6977 7.55966 79.3886 8.23173 78.7751 8.70838C78.1593 9.18503 77.2902 9.42336 76.1729 9.42336L76.1778 9.42574Z" fill="#1A1A1A"/>
<path id="Vector_8" d="M84.0459 1.55534V0.101562H90.8278V1.55534H84.0459ZM86.6652 9.33187V0.857051H88.2085V9.33187H86.6652Z" fill="#1A1A1A"/>
<path id="Vector_9" d="M15.1287 20.0568L13.3857 14.9805H14.0527L15.4208 19.1511L16.7889 14.9805H17.4558L15.7129 20.0568H15.1287Z" fill="#1A1A1A"/>
<path id="Vector_10" d="M18.79 20.0568V14.9805H19.4108V20.0568H18.79ZM19.143 15.5524V14.9805H22.1201V15.5524H19.143ZM19.143 17.8213V17.2493H21.7282V17.8213H19.143ZM19.143 20.0568V19.4848H22.1201V20.0568H19.143Z" fill="#1A1A1A"/>
<path id="Vector_11" d="M23.7021 20.052V14.9805H24.2912L27.0663 19.2298L26.9154 19.206V14.9829H27.5313V20.0544H26.9349L24.1354 15.817L24.318 15.8718V20.0544H23.7021V20.052Z" fill="#1A1A1A"/>
<path id="Vector_12" d="M28.9365 15.5524V14.9805H32.5952V15.5524H28.9365ZM30.4555 20.0568V15.2903H31.0762V20.0568H30.4555Z" fill="#1A1A1A"/>
<path id="Vector_13" d="M35.46 20.1092C34.866 20.1092 34.4133 19.9495 34.1041 19.6302C33.795 19.3108 33.6416 18.8461 33.6416 18.2384V14.9805H34.2623V18.2622C34.2623 18.6697 34.3646 18.9796 34.5666 19.1917C34.7687 19.4038 35.0681 19.511 35.46 19.511C35.8519 19.511 36.1538 19.4038 36.3582 19.1917C36.5627 18.9796 36.665 18.6674 36.665 18.2622V14.9805H37.2857V18.2384C37.2857 18.8485 37.1299 19.3132 36.8208 19.6302C36.5116 19.9472 36.0564 20.1092 35.46 20.1092Z" fill="#1A1A1A"/>
<path id="Vector_14" d="M38.9756 20.0553V14.9766H39.5963V20.0553H38.9756ZM39.292 17.908V17.336H41.0618C41.3149 17.336 41.517 17.2549 41.6679 17.0905C41.8188 16.9261 41.8967 16.7116 41.8991 16.4423C41.8991 16.173 41.8237 15.9561 41.6703 15.794C41.517 15.632 41.3149 15.5485 41.0618 15.5485H39.292V14.9766H41.0325C41.3344 14.9766 41.5973 15.0385 41.8237 15.1601C42.0501 15.2816 42.2253 15.4532 42.3495 15.6725C42.4736 15.8917 42.5369 16.1491 42.5369 16.4446C42.5369 16.7402 42.4736 16.9952 42.347 17.2144C42.2205 17.4337 42.0452 17.6053 41.8212 17.7268C41.5973 17.8484 41.3344 17.9103 41.0325 17.9103H39.292V17.908ZM42.016 20.0553L40.8281 17.7507L41.4269 17.591L42.7536 20.0553H42.016Z" fill="#1A1A1A"/>
<path id="Vector_15" d="M44.2822 20.0568V14.9805H44.903V20.0568H44.2822ZM44.6352 15.5524V14.9805H47.6123V15.5524H44.6352ZM44.6352 17.8213V17.2493H47.2204V17.8213H44.6352ZM44.6352 20.0568V19.4848H47.6123V20.0568H44.6352Z" fill="#1A1A1A"/>
<path id="Vector_16" d="M53.2616 20.1081C53.0084 20.1081 52.7723 20.0842 52.5508 20.0389C52.3293 19.9937 52.1199 19.9222 51.9276 19.8292C51.7353 19.7363 51.5527 19.6195 51.3848 19.4813L51.7669 19.0094C51.9739 19.1857 52.2027 19.3192 52.451 19.4074C52.6993 19.4956 52.9719 19.5408 53.264 19.5408C53.6754 19.5408 53.9943 19.4646 54.2183 19.3097C54.4422 19.1548 54.5542 18.9379 54.5542 18.659C54.5542 18.4541 54.4982 18.2968 54.3862 18.1895C54.2742 18.0799 54.1282 17.9989 53.9481 17.9441C53.7679 17.8892 53.5707 17.844 53.359 17.8058C53.1569 17.7701 52.9549 17.7296 52.7504 17.6843C52.5459 17.639 52.3609 17.5699 52.1929 17.4793C52.025 17.3888 51.8887 17.2601 51.784 17.0909C51.6793 16.9217 51.6282 16.7 51.6282 16.4212C51.6282 15.9445 51.7889 15.5799 52.1102 15.3201C52.4315 15.0603 52.8843 14.9316 53.4685 14.9316C53.7436 14.9316 54.0162 14.9745 54.2815 15.0627C54.5469 15.1509 54.8074 15.282 55.063 15.4631L54.7075 15.9421C54.4958 15.7944 54.2889 15.6824 54.0844 15.6109C53.8799 15.5394 53.6754 15.5036 53.4709 15.5036C53.0815 15.5036 52.7796 15.5823 52.5654 15.7372C52.3512 15.8921 52.2441 16.1137 52.2441 16.3997C52.2441 16.6023 52.3049 16.7548 52.4266 16.8597C52.5483 16.9645 52.709 17.0432 52.9062 17.0956C53.1034 17.1481 53.3127 17.1957 53.5367 17.241C53.7314 17.2791 53.9261 17.3244 54.1209 17.3769C54.3156 17.4293 54.4909 17.5055 54.6467 17.6009C54.8025 17.6962 54.9291 17.8273 55.024 17.9941C55.1189 18.1609 55.1676 18.3754 55.1676 18.6376V18.6447C55.1676 19.1119 55.0021 19.4741 54.6686 19.7315C54.3351 19.9889 53.8677 20.1152 53.264 20.1152L53.2616 20.1081Z" fill="#1A1A1A"/>
<path id="Vector_17" d="M56.0342 15.5524V14.9805H59.6929V15.5524H56.0342ZM57.5532 20.0568V15.2903H58.1739V20.0568H57.5532Z" fill="#1A1A1A"/>
<path id="Vector_18" d="M62.5586 20.1092C61.9647 20.1092 61.5119 19.9495 61.2028 19.6302C60.8936 19.3108 60.7402 18.8461 60.7402 18.2384V14.9805H61.361V18.2622C61.361 18.6697 61.4632 18.9796 61.6653 19.1917C61.8673 19.4038 62.1667 19.511 62.5586 19.511C62.9506 19.511 63.2524 19.4038 63.4569 19.1917C63.6614 18.9796 63.7636 18.6674 63.7636 18.2622V14.9805H64.3843V18.2384C64.3843 18.8485 64.2285 19.3132 63.9194 19.6302C63.6102 19.9472 63.155 20.1092 62.5586 20.1092Z" fill="#1A1A1A"/>
<path id="Vector_19" d="M66.0732 20.0568V14.9805H66.694V20.0568H66.0732ZM66.565 20.0568V19.4848H67.7383C68.1716 19.4848 68.5002 19.3823 68.7242 19.175C68.9481 18.9676 69.0601 18.665 69.0601 18.267V16.7727C69.0601 16.3747 68.9481 16.072 68.7242 15.8647C68.5002 15.6573 68.1716 15.5548 67.7383 15.5548H66.565V14.9829H67.7164C68.3615 14.9829 68.8507 15.1378 69.1867 15.4476C69.5226 15.7574 69.6906 16.2078 69.6906 16.8013V18.2407C69.6906 18.6364 69.6151 18.97 69.4666 19.2393C69.3181 19.5086 69.0942 19.7136 68.8021 19.8518C68.51 19.9901 68.1472 20.0592 67.7164 20.0592H66.5674L66.565 20.0568Z" fill="#1A1A1A"/>
<path id="Vector_20" d="M72.0153 14.9805V20.0568H71.3945V14.9805H72.0153Z" fill="#1A1A1A"/>
<path id="Vector_21" d="M75.6153 20.1085C75.2379 20.1085 74.9118 20.0322 74.6391 19.8845C74.3665 19.7343 74.1571 19.5198 74.0111 19.2386C73.865 18.9574 73.792 18.6237 73.792 18.2376V16.7982C73.792 16.4097 73.865 16.076 74.0111 15.7972C74.1571 15.5183 74.3665 15.3039 74.6391 15.1537C74.9118 15.0036 75.2355 14.9297 75.6153 14.9297C75.995 14.9297 76.3188 15.006 76.5914 15.1537C76.864 15.3039 77.0734 15.5183 77.2194 15.7972C77.3655 16.076 77.4385 16.4097 77.4385 16.7982V18.2376C77.4385 18.6237 77.3655 18.9574 77.2194 19.2386C77.0734 19.5198 76.864 19.7343 76.5914 19.8845C76.3188 20.0346 75.995 20.1085 75.6153 20.1085ZM75.6153 19.5246C75.9853 19.5246 76.2774 19.4126 76.4916 19.1862C76.7058 18.9598 76.8105 18.6523 76.8105 18.2615V16.7743C76.8105 16.3811 76.7034 16.0713 76.4916 15.8472C76.2798 15.6232 75.9877 15.5112 75.6153 15.5112C75.2428 15.5112 74.9531 15.6232 74.7389 15.8472C74.5247 16.0713 74.42 16.3811 74.42 16.7743V18.2615C74.42 18.6523 74.5271 18.9598 74.7389 19.1862C74.9507 19.4126 75.2428 19.5246 75.6153 19.5246Z" fill="#1A1A1A"/>
</g>
</g>
</svg>
