<svg width="131" height="31" viewBox="0 0 131 31" fill="none" xmlns="http://www.w3.org/2000/svg">
<rect width="131" height="31" fill="#F5F5F5"/>
<g id="home" clip-path="url(#clip0_0_1)">
<rect width="1440" height="3365" transform="translate(-421 -1769)" fill="white"/>
<rect id="Rectangle 230" x="-30" y="-31" width="191" height="92" rx="10" fill="#D9D9D9" fill-opacity="0.15"/>
<g id="Group 576">
<g id="Layer_1" clip-path="url(#clip1_0_1)">
<path id="Vector" d="M56.8166 7.86328H40.9834V10.3229L47.5707 10.3488L47.5198 25.299V25.4174H50.1249L50.1765 10.3488L56.8166 10.3229V7.86328Z" fill="black"/>
<path id="Vector_2" d="M61.2541 11.786C59.9902 11.7581 58.8063 11.9418 57.8265 12.316C57.1247 12.5841 56.5457 12.9433 56.1016 13.3862V11.786H53.4707V25.419H56.0765V18.0258C56.0765 16.8175 56.4114 15.8901 57.0725 15.2682C57.8665 14.5218 59.1792 14.1864 60.8683 14.2966L61.1497 14.315L61.6318 11.7935L61.2534 11.7853L61.2541 11.786Z" fill="black"/>
<path id="Vector_3" d="M73.1345 13.2174C72.0442 12.171 70.3647 11.5729 68.3827 11.5294C66.1689 11.4552 64.269 12.0764 63.0322 13.2773C62.0063 14.2734 61.4639 15.6321 61.4639 17.2059V20.0499C61.4639 21.5944 61.9928 22.928 62.9929 23.9057C64.1632 25.0494 65.9716 25.6795 68.0857 25.6795C68.182 25.6795 68.279 25.6781 68.3753 25.6754C70.341 25.6523 72.0225 25.0665 73.1339 24.0214V25.4189H75.7396V11.7859H73.1339V13.2181L73.1345 13.2174ZM73.1345 17.4359V19.8445C73.1345 22.0183 71.4828 23.2648 68.6024 23.2648C65.722 23.2648 64.0696 22.0183 64.0696 19.8445V17.4359C64.0696 15.1967 65.7214 13.9128 68.6024 13.9128C71.4835 13.9128 73.1345 15.23 73.1345 17.4359Z" fill="black"/>
<path id="Vector_4" d="M88.8132 13.2166C87.7223 12.1702 86.0434 11.5721 84.0614 11.5279C81.853 11.4557 79.9545 12.079 78.715 13.2826C77.6864 14.2814 77.1426 15.6374 77.1426 17.2044V20.0484C77.1426 21.5793 77.6742 22.9074 78.6797 23.8899C79.8589 25.0425 81.6672 25.6773 83.7706 25.6773C83.8648 25.6773 83.9604 25.6759 84.0547 25.6739C86.0203 25.6508 87.7019 25.0649 88.8132 24.0199V25.4174H91.419V7.86328H88.8132V13.2166ZM88.8132 17.435V19.8436C88.8132 22.0175 87.1615 23.2639 84.2805 23.2639C81.3994 23.2639 79.7477 22.0175 79.7477 19.8436V17.435C79.7477 15.1959 81.3994 13.912 84.2805 13.912C87.1615 13.912 88.8132 15.2292 88.8132 17.435Z" fill="black"/>
<path id="Vector_5" d="M94.4194 7.78711C93.5244 7.78711 92.8232 8.38926 92.8232 9.15878C92.8232 9.9283 93.5094 10.5556 94.4194 10.5556C95.3293 10.5556 95.9904 9.94191 95.9904 9.15878C95.9904 8.37565 95.3002 7.78711 94.4194 7.78711Z" fill="black"/>
<path id="Vector_6" d="M95.709 11.7852H93.0781V25.4182H95.709V11.7852Z" fill="black"/>
<path id="Vector_7" d="M104.753 11.5279C102.736 11.5728 101.097 12.1552 99.9983 13.2159V7.86328H97.3926V25.4174H99.9983V24.0199C101.11 25.0649 102.79 25.6508 104.752 25.6732C104.848 25.6759 104.943 25.6773 105.038 25.6773C107.144 25.6773 108.952 25.0425 110.132 23.8899C111.137 22.9074 111.669 21.5786 111.669 20.0484V17.2044C111.669 15.6374 111.125 14.2814 110.097 13.2826C108.857 12.079 106.961 11.4557 104.753 11.5279ZM109.063 17.435V19.8436C109.063 22.0175 107.412 23.2639 104.531 23.2639C101.651 23.2639 99.9983 22.0175 99.9983 19.8436V17.435C99.9983 15.1959 101.65 13.912 104.531 13.912C107.412 13.912 109.063 15.2292 109.063 17.435Z" fill="black"/>
<path id="Vector_8" d="M115.703 7.86328H113.072V25.4174H115.703V7.86328Z" fill="black"/>
<path id="Vector_9" d="M130.976 17.1902L130.974 17.1323C130.974 17.1323 130.974 17.1303 130.974 17.1289V17.1194H130.973C130.852 15.4014 130.139 13.978 128.913 13.0017C127.703 12.0382 126.01 11.5293 124.015 11.5293C122.021 11.5293 120.334 12.0375 119.125 12.9983C117.805 14.0467 117.107 15.6082 117.107 17.5133V20.0247C117.107 21.7406 117.811 23.1858 119.142 24.2036C120.401 25.1664 122.122 25.6753 124.118 25.6753C126.698 25.6753 128.66 24.9228 129.951 23.4389L130.143 23.2177L128.573 21.5712L128.343 21.8406C127.439 22.9034 126.056 23.4198 124.117 23.4198C122.777 23.4198 119.662 23.0912 119.662 20.0505V19.0381L130.848 19.0129H130.91L130.946 18.734C131.024 18.1359 131.001 17.6977 130.976 17.1908V17.1902ZM124.015 13.7855C125.464 13.7855 126.567 14.0855 127.293 14.6781C127.958 15.2197 128.325 16.0314 128.385 17.0908H119.67C119.79 14.8673 121.212 13.7855 124.015 13.7855Z" fill="black"/>
<path id="Vector_10" d="M27.314 0H3.57945C1.60257 0 0 1.6081 0 3.59179V27.4082C0 29.3919 1.60257 31 3.57945 31H27.314C29.2909 31 30.8935 29.3919 30.8935 27.4082V3.59179C30.8935 1.6081 29.2909 0 27.314 0Z" fill="url(#paint0_linear_0_1)"/>
<path id="Vector_11" d="M20.1971 7.74023H17.0923C16.7781 7.74023 16.5234 7.99581 16.5234 8.31108V11.4266C16.5234 11.7419 16.7781 11.9974 17.0923 11.9974H20.1971C20.5113 11.9974 20.766 11.7419 20.766 11.4266V8.31108C20.766 7.99581 20.5113 7.74023 20.1971 7.74023Z" fill="white"/>
<path id="Vector_12" d="M20.1825 23.2594H14.9527C14.6306 23.2594 14.3695 22.9974 14.3695 22.6742V4.06756C14.3695 3.74437 14.1085 3.48242 13.7864 3.48242H10.7101C10.388 3.48242 10.127 3.74437 10.127 4.06756V23.2274C10.127 23.5506 10.388 23.8125 10.7101 23.8125H13.2358C13.5579 23.8125 13.819 24.0745 13.819 24.3977V26.9321C13.819 27.2553 14.08 27.5173 14.4021 27.5173H20.1825C20.5046 27.5173 20.7656 27.2553 20.7656 26.9321V23.8452C20.7656 23.522 20.5046 23.26 20.1825 23.26V23.2594Z" fill="white"/>
</g>
</g>
</g>
<defs>
<linearGradient id="paint0_linear_0_1" x1="0" y1="15.5" x2="30.8935" y2="15.5" gradientUnits="userSpaceOnUse">
<stop offset="0.16" stop-color="#EA395F"/>
<stop offset="0.29" stop-color="#CE3F89"/>
<stop offset="0.66" stop-color="#8350FF"/>
<stop offset="1" stop-color="#4282F4"/>
</linearGradient>
<clipPath id="clip0_0_1">
<rect width="1440" height="3365" fill="white" transform="translate(-421 -1769)"/>
</clipPath>
<clipPath id="clip1_0_1">
<rect width="131" height="31" fill="white"/>
</clipPath>
</defs>
</svg>
