<svg width="191" height="92" viewBox="0 0 191 92" fill="none" xmlns="http://www.w3.org/2000/svg">
<rect width="191" height="92" rx="10" fill="#D9D9D9" fill-opacity="0.15"/>
<g clip-path="url(#clip0_262_2)">
<path d="M86.8166 38.8633H70.9834V41.3229L77.5707 41.3488L77.5198 56.299V56.4174H80.1249L80.1765 41.3488L86.8166 41.3229V38.8633Z" fill="black"/>
<path d="M91.2541 42.786C89.9902 42.7581 88.8063 42.9418 87.8265 43.316C87.1247 43.5841 86.5457 43.9433 86.1016 44.3862V42.786H83.4707V56.419H86.0765V49.0258C86.0765 47.8175 86.4114 46.8901 87.0725 46.2682C87.8665 45.5218 89.1792 45.1864 90.8683 45.2966L91.1497 45.315L91.6318 42.7935L91.2534 42.7853L91.2541 42.786Z" fill="black"/>
<path d="M103.135 44.2174C102.044 43.171 100.365 42.5729 98.3827 42.5294C96.1689 42.4552 94.269 43.0764 93.0322 44.2773C92.0063 45.2734 91.4639 46.6321 91.4639 48.2059V51.0499C91.4639 52.5944 91.9928 53.928 92.9929 54.9057C94.1632 56.0494 95.9716 56.6795 98.0857 56.6795C98.182 56.6795 98.279 56.6781 98.3753 56.6754C100.341 56.6523 102.023 56.0665 103.134 55.0214V56.4189H105.74V42.7859H103.134V44.2181L103.135 44.2174ZM103.135 48.4359V50.8445C103.135 53.0183 101.483 54.2648 98.6024 54.2648C95.722 54.2648 94.0696 53.0183 94.0696 50.8445V48.4359C94.0696 46.1967 95.7214 44.9128 98.6024 44.9128C101.483 44.9128 103.135 46.23 103.135 48.4359Z" fill="black"/>
<path d="M118.813 44.2166C117.722 43.1702 116.043 42.5721 114.061 42.5279C111.853 42.4557 109.954 43.079 108.715 44.2826C107.686 45.2814 107.143 46.6374 107.143 48.2044V51.0484C107.143 52.5793 107.674 53.9074 108.68 54.8899C109.859 56.0425 111.667 56.6773 113.771 56.6773C113.865 56.6773 113.96 56.6759 114.055 56.6739C116.02 56.6508 117.702 56.0649 118.813 55.0199V56.4174H121.419V38.8633H118.813V44.2166ZM118.813 48.435V50.8436C118.813 53.0175 117.162 54.2639 114.28 54.2639C111.399 54.2639 109.748 53.0175 109.748 50.8436V48.435C109.748 46.1959 111.399 44.912 114.28 44.912C117.162 44.912 118.813 46.2292 118.813 48.435Z" fill="black"/>
<path d="M124.419 38.7871C123.524 38.7871 122.823 39.3893 122.823 40.1588C122.823 40.9283 123.509 41.5556 124.419 41.5556C125.329 41.5556 125.99 40.9419 125.99 40.1588C125.99 39.3756 125.3 38.7871 124.419 38.7871Z" fill="black"/>
<path d="M125.709 42.7852H123.078V56.4182H125.709V42.7852Z" fill="black"/>
<path d="M134.753 42.5279C132.736 42.5728 131.097 43.1552 129.998 44.2159V38.8633H127.393V56.4174H129.998V55.0199C131.11 56.0649 132.79 56.6508 134.752 56.6732C134.848 56.6759 134.943 56.6773 135.038 56.6773C137.144 56.6773 138.952 56.0425 140.132 54.8899C141.137 53.9074 141.669 52.5786 141.669 51.0484V48.2044C141.669 46.6374 141.125 45.2814 140.097 44.2826C138.857 43.079 136.961 42.4557 134.753 42.5279ZM139.063 48.435V50.8436C139.063 53.0175 137.412 54.2639 134.531 54.2639C131.651 54.2639 129.998 53.0175 129.998 50.8436V48.435C129.998 46.1959 131.65 44.912 134.531 44.912C137.412 44.912 139.063 46.2292 139.063 48.435Z" fill="black"/>
<path d="M145.703 38.8633H143.072V56.4174H145.703V38.8633Z" fill="black"/>
<path d="M160.976 48.1902L160.974 48.1323C160.974 48.1323 160.974 48.1303 160.974 48.1289V48.1194H160.973C160.852 46.4014 160.139 44.978 158.913 44.0017C157.703 43.0382 156.01 42.5293 154.015 42.5293C152.021 42.5293 150.334 43.0375 149.125 43.9983C147.805 45.0467 147.107 46.6082 147.107 48.5133V51.0247C147.107 52.7406 147.811 54.1858 149.142 55.2036C150.401 56.1664 152.122 56.6753 154.118 56.6753C156.698 56.6753 158.66 55.9228 159.951 54.4389L160.143 54.2177L158.573 52.5712L158.343 52.8406C157.439 53.9034 156.056 54.4198 154.117 54.4198C152.777 54.4198 149.662 54.0912 149.662 51.0505V50.0381L160.848 50.0129H160.91L160.946 49.734C161.024 49.1359 161.001 48.6977 160.976 48.1908V48.1902ZM154.015 44.7855C155.464 44.7855 156.567 45.0855 157.293 45.6781C157.958 46.2197 158.325 47.0314 158.385 48.0908H149.67C149.79 45.8673 151.212 44.7855 154.015 44.7855Z" fill="black"/>
<path d="M57.314 31H33.5794C31.6026 31 30 32.6081 30 34.5918V58.4082C30 60.3919 31.6026 62 33.5794 62H57.314C59.2909 62 60.8935 60.3919 60.8935 58.4082V34.5918C60.8935 32.6081 59.2909 31 57.314 31Z" fill="url(#paint0_linear_262_2)"/>
<path d="M50.1971 38.7402H47.0923C46.7781 38.7402 46.5234 38.9958 46.5234 39.3111V42.4266C46.5234 42.7419 46.7781 42.9974 47.0923 42.9974H50.1971C50.5113 42.9974 50.766 42.7419 50.766 42.4266V39.3111C50.766 38.9958 50.5113 38.7402 50.1971 38.7402Z" fill="white"/>
<path d="M50.1825 54.2594H44.9527C44.6306 54.2594 44.3695 53.9974 44.3695 53.6742V35.0676C44.3695 34.7444 44.1085 34.4824 43.7864 34.4824H40.7101C40.388 34.4824 40.127 34.7444 40.127 35.0676V54.2274C40.127 54.5506 40.388 54.8125 40.7101 54.8125H43.2358C43.5579 54.8125 43.819 55.0745 43.819 55.3977V57.9321C43.819 58.2553 44.08 58.5173 44.4021 58.5173H50.1825C50.5046 58.5173 50.7656 58.2553 50.7656 57.9321V54.8452C50.7656 54.522 50.5046 54.26 50.1825 54.26V54.2594Z" fill="white"/>
</g>
<defs>
<linearGradient id="paint0_linear_262_2" x1="30" y1="46.5" x2="60.8935" y2="46.5" gradientUnits="userSpaceOnUse">
<stop offset="0.16" stop-color="#EA395F"/>
<stop offset="0.29" stop-color="#CE3F89"/>
<stop offset="0.66" stop-color="#8350FF"/>
<stop offset="1" stop-color="#4282F4"/>
</linearGradient>
<clipPath id="clip0_262_2">
<rect width="131" height="31" fill="white" transform="translate(30 31)"/>
</clipPath>
</defs>
</svg>
